<?xml version="1.0" encoding="UTF-8"?>
<svg width="91px" height="79px" viewBox="0 0 91 79" version="1.1" xmlns="http://www.w3.org/2000/svg" xmlns:xlink="http://www.w3.org/1999/xlink">
    <!-- Generator: Sketch 61.2 (89653) - https://sketch.com -->
    <title>web-programming</title>
    <desc>Created with Sketch.</desc>
    <g id="Personal-1-mixed" stroke="none" stroke-width="1" fill="none" fill-rule="evenodd">
        <g transform="translate(-824.000000, -1706.000000)" fill-rule="nonzero" id="services">
            <g transform="translate(350.000000, 1552.000000)">
                <g id="1-copy-3" transform="translate(356.000000, 109.000000)">
                    <g id="web-programming" transform="translate(118.000000, 45.000000)">
                        <path d="M90.1408451,8.64905468 L90.1408451,21.2096106 L0,21.2096106 L0,8.64905468 C0,3.87264796 3.93765024,0 8.79422879,0 L81.3466163,0 C86.2031948,0 90.1408451,3.87264796 90.1408451,8.64905468 Z" id="Path" fill="#1E81B0"></path>
                        <g id="Group" transform="translate(0.000000, 7.953604)">
                            <path d="M39.7303333,0.107413294 C41.5699072,0.113301286 43.0556511,1.57530671 43.0496575,3.3730197 C43.0436276,5.17073247 41.547578,6.6235061 39.7080041,6.61764893 C37.8684302,6.61175645 36.3826864,5.14975082 36.3886799,3.35203783 C36.3955686,1.55432505 37.8907592,0.102390636 39.7303333,0.107413294 Z" id="Path" fill="#154C79"></path>
                            <path d="M90.1408451,13.7698765 L90.1408451,61.4646595 C90.1408451,66.2115615 86.2031948,70.0587678 81.3466163,70.0587678 L8.79422879,70.0587678 C3.93765024,70.0587678 0,66.2115615 0,61.4646595 L0,13.7698765 L90.1408451,13.7698765 Z" id="Path" fill="#ABDBE3"></path>
                            <path d="M24.7664034,0.0620811235 C26.6059773,0.0679806856 28.0925799,1.52998632 28.0865864,3.3276991 C28.0805565,5.12541209 26.5845071,6.57818572 24.744933,6.57232854 C22.905359,6.56643585 21.4187564,5.10443022 21.42475,3.30671744 C21.4273447,2.44311033 21.7811747,1.61559159 22.4072484,1.00712206 C23.0341806,0.398652537 23.8835451,0.0587488944 24.7664034,0.0620811235 Z" id="Path" fill="#154C79"></path>
                            <path d="M9.80333224,0.0150821538 C11.6437651,0.0201424413 13.1312263,1.48214808 13.1252329,3.28070007 C13.1200618,5.07925227 11.6240124,6.53286512 9.78357953,6.52700793 C7.94314663,6.52195468 6.45568528,5.05994905 6.46167885,3.26139706 C6.46341474,2.39778973 6.81724482,1.5702712 7.44417726,0.960962248 C8.07110969,0.352492722 8.91961514,0.0117498648 9.80333224,0.0150821538 Z" id="Path" fill="#154C79"></path>
                        </g>
                    </g>
                </g>
            </g>
        </g>
    </g>
</svg>